# xmcd
#
# Track frame offsets: 
#        150
#        13338
#        33388
#        50183
#        68086
#        82451
#        97238
#        114328
#        135832
#        151311
#        166371
#        185838
#        198503
#        215544
#
# Disc length: 3041 seconds
#
# Revision: 0
# Processed by: cddbd v1.5.2PL0 Copyright (c) Steve Scherf et al.
# Submitted via: ExactAudioCopyFreeDBPlugin 1.0
#
DISCID=d00bdf0e
DTITLE=Kellie Pickler - The Very Best Of
DYEAR=2014
DGENRE=Country
TTITLE0=Walkin' After Midnight
TTITLE1=Small Town Girl
TTITLE2=Red High Heels
TTITLE3=I Wonder
TTITLE4=Things That Never Cross A Man's Mind
TTITLE5=Don't You Know You're Beautiful
TTITLE6=Best Days Of Your Life
TTITLE7=Didn't You Know How Much I Loved You
TTITLE8=Makin' Me Fall In Love Again
TTITLE9=Rocks Instead Of Rice
TTITLE10=Somebody To Love Me
TTITLE11=Tough
TTITLE12=100 Proof
TTITLE13=Stop Cheatin' On Me
EXTD=
EXTT0=
EXTT1=
EXTT2=
EXTT3=
EXTT4=
EXTT5=
EXTT6=
EXTT7=
EXTT8=
EXTT9=
EXTT10=
EXTT11=
EXTT12=
EXTT13=
PLAYORDER=
